# xmcd
# 
# Track frame offsets:
#     150
#     30895
#     52570
#     77872
#     103970
#     151852
# 
# Disc length: 2766
# 
# Revision: 1
# Processed by: cddbd v1.5.2PL0 Copyright (c) Steve Scherf et al.
# Submitted via: BonkEnc v1.0.5
# 
DISCID=350acc06
DTITLE=Johnny Winter - Captured Live!
DYEAR=1976
DGENRE=Blues
TTITLE0=Bony Moronie
TTITLE1=Roll With Me
TTITLE2=Rock and Roll People
TTITLE3=It's All Over Now
TTITLE4=Highway 61 Revisited
TTITLE5=Sweet Papa John
EXTD=YEAR: 1976 ID3G: 0
EXTT0=
EXTT1=
EXTT2=
EXTT3=
EXTT4=
EXTT5=
PLAYORDER=
